#!OML:ASF F:\twosubjects\two\wednesday\Session 1\rory1.ASF
:FULLY-SPECIFIED
:DEGREES
33
root 1.08608 18.6122 22.5248 -174.354 4.91191 -174.875
lowerback 2.1367 2.44151 1.1243
upperback 2.01777 3.3357 0.540069
thorax 0.902511 1.70625 -0.117776
lowerneck -12.0106 -5.08931 -5.29017
upperneck 18.7756 -7.60254 5.03944
head 8.19168 -3.71533 1.69693
rclavicle 2.38542e-014 -3.97569e-015
rhumerus -33.0181 -24.7724 -61.8985
rradius 42.8144
rwrist -13.5355
rhand -25.4153 37.5491
rfingers 7.12502
rthumb 1.11047 7.57222
lclavicle 2.38542e-014 -3.97569e-015
lhumerus -53.1449 26.6372 59.425
lradius 17.0829
lwrist -15.3648
lhand -18.3946 16.6608
lfingers 7.12502
lthumb 7.88953 46.4935
rfemur 12.5254 6.79073 24.9586
rtibia 22.6278
rfoot 4.49028 6.86699
rtoes -2.5678
lfemur -30.2427 -3.19479 -15.12
ltibia 25.6031
lfoot -5.01764 12.3022
ltoes -5.74324
34
root 1.06037 18.6065 22.3184 -174.542 4.85403 -175.316
lowerback 1.96467 2.4631 0.475391
upperback 2.13968 3.3556 0.438363
thorax 1.0928 1.70998 0.151089
lowerneck -11.9654 -5.19343 -5.3125
upperneck 18.7984 -7.78921 5.19489
head 8.20914 -3.79414 1.73097
rclavicle -1.68967e-015 -3.18055e-015
rhumerus -32.982 -26.014 -61.4509
rradius 43.1008
rwrist -14.5225
rhand -25.622 37.4168
rfingers 7.12502
rthumb 0.91083 7.43898
lclavicle -1.68967e-015 -3.18055e-015
lhumerus -52.6066 27.0993 59.2905
lradius 16.8042
lwrist -15.9349
lhand -18.6506 17.5298
lfingers 7.12502
lthumb 7.64237 47.3717
rfemur 11.4719 6.34278 24.1776
rtibia 25.152
rfoot 6.9067 7.32086
rtoes -0.646545
lfemur -29.9317 -3.00888 -15.8857
ltibia 26.3696
lfoot -4.84142 11.5657
ltoes -4.90565
35
root 1.03611 18.5999 22.1173 -174.635 4.86123 -175.81
lowerback 1.70983 2.53539 -0.168441
upperback 2.19914 3.44479 0.261103
thorax 1.26976 1.74607 0.341895
lowerneck -11.834 -5.24771 -5.25251
upperneck 18.8552 -7.92894 5.309
head 8.21472 -3.85362 1.74514
rclavicle -9.14409e-015 -3.18055e-015
rhumerus -33.0825 -27.1936 -61.0575
rradius 43.5241
rwrist -15.6379
rhand -25.5817 37.2619
rfingers 7.12502
rthumb 0.949706 7.28426
lclavicle -9.14409e-015 -3.18055e-015
lhumerus -52.1155 27.5911 58.9672
lradius 16.5508
lwrist -16.8284
lhand -19.0835 17.4369
lfingers 7.12502
lthumb 7.22454 47.2935
rfemur 10.2287 6.09423 23.328
rtibia 27.7399
rfoot 9.67359 7.64024
rtoes 2.14983
lfemur -29.6538 -2.45186 -16.8088
ltibia 27.0941
lfoot -4.63957 10.6488
ltoes -6.35268
36
root 1.00938 18.596 21.9227 -174.813 4.68888 -176.171
lowerback 1.71707 2.47511 -0.530099
upperback 2.15407 3.36004 0.110236
thorax 1.20853 1.69888 0.38773
lowerneck -11.5329 -5.27455 -5.32274
upperneck 19.0346 -8.04706 5.43488
head 8.23514 -3.92166 1.78982
rclavicle -2.05742e-014 -1.19271e-014
rhumerus -33.3019 -27.8669 -60.7702
rradius 44.0378
rwrist -16.8203
rhand -26.1569 37.3736
rfingers 7.12502
rthumb 0.39417 7.39419
lclavicle -2.05742e-014 -1.19271e-014
lhumerus -51.9411 28.2411 58.3554
lradius 16.3308
lwrist -17.7541
lhand -19.3706 17.264
lfingers 7.12502
lthumb 6.94745 47.1299
rfemur 9.03926 5.82066 22.6372
rtibia 30.2959
rfoot 12.7214 7.73356
rtoes 5.69629
lfemur -29.2403 -2.18644 -17.5439
ltibia 27.8463
lfoot -4.63924 9.89671
ltoes -7.12457
37
root 0.975458 18.5907 21.7271 -175.051 4.4717 -176.46
lowerback 1.90073 2.37179 -0.689604
upperback 2.08756 3.21891 -0.0280098
thorax 1.03822 1.62752 0.32576
lowerneck -11.4167 -5.29997 -5.45032
upperneck 19.3654 -8.16816 5.59521
head 8.34421 -3.98884 1.84873
rclavicle 3.66758e-014 -1.98785e-015
rhumerus -33.4876 -28.5289 -60.4762
rradius 44.4663
rwrist -17.6759
rhand -26.8017 37.8117
rfingers 7.12502
rthumb -0.2286 7.83211
lclavicle 3.66758e-014 -1.98785e-015
lhumerus -51.6426 28.674 58.0615
lradius 16.1747
lwrist -18.0621
lhand -19.0622 16.5689
lfingers 7.12502
lthumb 7.2451 46.4248
rfemur 7.91896 5.65062 22.0371
rtibia 32.8577
rfoot 15.7688 7.44027
rtoes 8.33492
lfemur -28.7088 -2.34079 -18.1083
ltibia 28.5391
lfoot -5.41468 9.51414
ltoes -4.70071
38
root 0.943093 18.586 21.5325 -175.249 4.23544 -176.676
lowerback 2.08551 2.3088 -0.785159
upperback 1.92668 3.12671 -0.169233
thorax 0.773669 1.58049 0.222723
lowerneck -11.0829 -5.27677 -5.4489
upperneck 19.6227 -8.24667 5.68889
head 8.37829 -4.04173 1.87588
rclavicle 3.38928e-014 -7.15625e-015
rhumerus -33.9207 -29.3142 -60.0657
rradius 45.0343
rwrist -18.8336
rhand -26.8502 37.9002
rfingers 7.12502
rthumb -0.275439 7.92061
lclavicle 3.38928e-014 -7.15625e-015
lhumerus -51.3212 28.6317 58.009
lradius 16.1909
lwrist -17.6806
lhand -18.3875 16.0417
lfingers 7.12502
lthumb 7.89637 45.8743
rfemur 6.65231 5.45948 21.5624
rtibia 35.4445
rfoot 19.1409 6.76783
rtoes 11.2762
lfemur -28.1455 -2.33422 -18.6162
ltibia 29.103
lfoot -7.137 9.02775
ltoes 0.339446
